<?xml version="1.0" encoding="UTF-8" standalone="no"?>
<svg
   width="826px"
   height="366px"
   viewBox="0 0 826 366"
   version="1.1"
   id="svg14"
   sodipodi:docname="ipad.svg"
   xml:space="preserve"
   inkscape:version="1.3 (0e150ed6c4, 2023-07-21)"
   xmlns:inkscape="http://www.inkscape.org/namespaces/inkscape"
   xmlns:sodipodi="http://sodipodi.sourceforge.net/DTD/sodipodi-0.dtd"
   xmlns="http://www.w3.org/2000/svg"
   xmlns:svg="http://www.w3.org/2000/svg"
   xmlns:sketch="http://www.bohemiancoding.com/sketch/ns"><sodipodi:namedview
     id="namedview14"
     pagecolor="#ffffff"
     bordercolor="#000000"
     borderopacity="0.25"
     inkscape:showpageshadow="2"
     inkscape:pageopacity="0.0"
     inkscape:pagecheckerboard="0"
     inkscape:deskcolor="#d1d1d1"
     inkscape:zoom="1.1591072"
     inkscape:cx="503.40467"
     inkscape:cy="188.50715"
     inkscape:window-width="3364"
     inkscape:window-height="1403"
     inkscape:window-x="1996"
     inkscape:window-y="0"
     inkscape:window-maximized="1"
     inkscape:current-layer="ipad" /><!-- Generator: Sketch Beta 3.3.2 (12041) - http://www.bohemiancoding.com/sketch --><title
     id="title1">ipad</title><desc
     id="desc1">Created with Sketch Beta.</desc><defs
     id="defs14"><filter
       x="-0.0043543544"
       y="-0.0063736264"
       width="1.0087087"
       height="1.0171429"
       filterUnits="objectBoundingBox"
       id="filter-1"><feOffset
         dx="0"
         dy="2"
         in="SourceAlpha"
         result="shadowOffsetOuter1"
         id="feOffset1" /><feGaussianBlur
         stdDeviation="1"
         in="shadowOffsetOuter1"
         result="shadowBlurOuter1"
         id="feGaussianBlur1" /><feColorMatrix
         values="0 0 0 0 0   0 0 0 0 0   0 0 0 0 0  0 0 0 0.35 0"
         in="shadowBlurOuter1"
         type="matrix"
         result="shadowMatrixOuter1"
         id="feColorMatrix1" /><feMerge
         id="feMerge2"><feMergeNode
           in="shadowMatrixOuter1"
           id="feMergeNode1" /><feMergeNode
           in="SourceGraphic"
           id="feMergeNode2" /></feMerge></filter><filter
       x="0"
       y="0"
       width="1"
       height="1.0833333"
       filterUnits="objectBoundingBox"
       id="filter-2"><feOffset
         dx="0"
         dy="1"
         in="SourceAlpha"
         result="shadowOffsetOuter1"
         id="feOffset2" /><feGaussianBlur
         stdDeviation="0"
         in="shadowOffsetOuter1"
         result="shadowBlurOuter1"
         id="feGaussianBlur2" /><feColorMatrix
         values="0 0 0 0 0.682352941   0 0 0 0 0.666666667   0 0 0 0 0.666666667  0 0 0 0.7 0"
         in="shadowBlurOuter1"
         type="matrix"
         result="shadowMatrixOuter1"
         id="feColorMatrix2" /><feOffset
         dx="0"
         dy="0"
         in="SourceAlpha"
         result="shadowOffsetOuter2"
         id="feOffset3" /><feGaussianBlur
         stdDeviation="0"
         in="shadowOffsetOuter2"
         result="shadowBlurOuter2"
         id="feGaussianBlur3" /><feColorMatrix
         values="0 0 0 0 0.581207483   0 0 0 0 0.581207483   0 0 0 0 0.581207483  0 0 0 0.7 0"
         in="shadowBlurOuter2"
         type="matrix"
         result="shadowMatrixOuter2"
         id="feColorMatrix3" /><feMerge
         id="feMerge5"><feMergeNode
           in="shadowMatrixOuter1"
           id="feMergeNode3" /><feMergeNode
           in="shadowMatrixOuter2"
           id="feMergeNode4" /><feMergeNode
           in="SourceGraphic"
           id="feMergeNode5" /></feMerge></filter><filter
       x="0"
       y="-0.03030303"
       width="1"
       height="1.0909091"
       filterUnits="objectBoundingBox"
       id="filter-3"><feOffset
         dx="0"
         dy="2"
         in="SourceAlpha"
         result="shadowOffsetOuter1"
         id="feOffset5" /><feGaussianBlur
         stdDeviation="0"
         in="shadowOffsetOuter1"
         result="shadowBlurOuter1"
         id="feGaussianBlur5" /><feColorMatrix
         values="0 0 0 0 0.682352941   0 0 0 0 0.666666667   0 0 0 0 0.666666667  0 0 0 0.7 0"
         in="shadowBlurOuter1"
         type="matrix"
         result="shadowMatrixOuter1"
         id="feColorMatrix5" /><feOffset
         dx="0"
         dy="-1"
         in="SourceAlpha"
         result="shadowOffsetOuter2"
         id="feOffset6" /><feGaussianBlur
         stdDeviation="0"
         in="shadowOffsetOuter2"
         result="shadowBlurOuter2"
         id="feGaussianBlur6" /><feColorMatrix
         values="0 0 0 0 0.842261905   0 0 0 0 0.842261905   0 0 0 0 0.842261905  0 0 0 0.35 0"
         in="shadowBlurOuter2"
         type="matrix"
         result="shadowMatrixOuter2"
         id="feColorMatrix6" /><feMerge
         id="feMerge8"><feMergeNode
           in="shadowMatrixOuter1"
           id="feMergeNode6" /><feMergeNode
           in="shadowMatrixOuter2"
           id="feMergeNode7" /><feMergeNode
           in="SourceGraphic"
           id="feMergeNode8" /></feMerge></filter><filter
       x="-0.0096549842"
       y="-0.022040354"
       width="1.0219296"
       height="1.0621334"
       filterUnits="objectBoundingBox"
       id="filter-4"><feOffset
         dx="0"
         dy="-1"
         in="SourceAlpha"
         result="shadowOffsetOuter1"
         id="feOffset8" /><feGaussianBlur
         stdDeviation="0"
         in="shadowOffsetOuter1"
         result="shadowBlurOuter1"
         id="feGaussianBlur8" /><feColorMatrix
         values="0 0 0 0 0.905882353   0 0 0 0 0.905882353   0 0 0 0 0.905882353  0 0 0 0.7 0"
         in="shadowBlurOuter1"
         type="matrix"
         result="shadowMatrixOuter1"
         id="feColorMatrix8" /><feOffset
         dx="0"
         dy="1"
         in="SourceAlpha"
         result="shadowOffsetOuter2"
         id="feOffset9" /><feGaussianBlur
         stdDeviation="0"
         in="shadowOffsetOuter2"
         result="shadowBlurOuter2"
         id="feGaussianBlur9" /><feColorMatrix
         values="0 0 0 0 0.682185374   0 0 0 0 0.665106514   0 0 0 0 0.665106514  0 0 0 0.7 0"
         in="shadowBlurOuter2"
         type="matrix"
         result="shadowMatrixOuter2"
         id="feColorMatrix9" /><feMerge
         id="feMerge11"><feMergeNode
           in="shadowMatrixOuter1"
           id="feMergeNode9" /><feMergeNode
           in="shadowMatrixOuter2"
           id="feMergeNode10" /><feMergeNode
           in="SourceGraphic"
           id="feMergeNode11" /></feMerge></filter><filter
       x="0"
       y="-0.076923077"
       width="1"
       height="1.1538462"
       filterUnits="objectBoundingBox"
       id="filter-5"><feOffset
         dx="0"
         dy="1"
         in="SourceAlpha"
         result="shadowOffsetOuter1"
         id="feOffset11" /><feGaussianBlur
         stdDeviation="0"
         in="shadowOffsetOuter1"
         result="shadowBlurOuter1"
         id="feGaussianBlur11" /><feColorMatrix
         values="0 0 0 0 0.682352941   0 0 0 0 0.666666667   0 0 0 0 0.666666667  0 0 0 0.7 0"
         in="shadowBlurOuter1"
         type="matrix"
         result="shadowMatrixOuter1"
         id="feColorMatrix11" /><feOffset
         dx="0"
         dy="-1"
         in="SourceAlpha"
         result="shadowOffsetOuter2"
         id="feOffset12" /><feGaussianBlur
         stdDeviation="0"
         in="shadowOffsetOuter2"
         result="shadowBlurOuter2"
         id="feGaussianBlur12" /><feColorMatrix
         values="0 0 0 0 0.843137255   0 0 0 0 0.843137255   0 0 0 0 0.843137255  0 0 0 0.35 0"
         in="shadowBlurOuter2"
         type="matrix"
         result="shadowMatrixOuter2"
         id="feColorMatrix12" /><feMerge
         id="feMerge14"><feMergeNode
           in="shadowMatrixOuter1"
           id="feMergeNode12" /><feMergeNode
           in="shadowMatrixOuter2"
           id="feMergeNode13" /><feMergeNode
           in="SourceGraphic"
           id="feMergeNode14" /></feMerge></filter></defs><g
     id="skinny-interaction-flow"
     stroke="none"
     stroke-width="1"
     fill="none"
     fill-rule="evenodd"
     sketch:type="MSPage"><g
       id="ipad"
       sketch:type="MSArtboardGroup"><g
         id="ipad-copy"
         sketch:type="MSLayerGroup"
         transform="translate(80)"><g
           id="Group"
           sketch:type="MSShapeGroup"><path
             d="M 0,35.994717 C 0,18.324522 14.334826,4 31.996268,4 H 634.00373 C 651.67478,4 666,18.321224 666,35.994717 V 427.00528 C 666,444.67548 651.66517,459 634.00373,459 H 31.996268 C 14.325217,459 0,444.67878 0,427.00528 Z m 59.25,-6.47995 c 0,-2.2061 1.796524,-3.994497 3.996085,-3.994497 H 602.75391 c 2.20698,0 3.99609,1.79166 3.99609,3.994497 V 433.48523 c 0,2.2061 -1.79652,3.9945 -3.99609,3.9945 H 63.246085 c -2.206977,0 -3.996085,-1.79166 -3.996085,-3.9945 z"
             id="Rectangle-11-Copy-2"
             fill="#e7e7e7" /><path
             d="M 0,31.994716 C 0,14.324523 14.334826,0 31.996268,0 H 634.00373 C 651.67478,0 666,14.321224 666,31.994716 V 423.00528 C 666,440.67548 651.66517,455 634.00373,455 H 31.996268 C 14.325217,455 0,440.67878 0,423.00528 Z m 59.25,8.518802 c 0,-2.20541 1.796524,-3.993248 3.996085,-3.993248 H 602.75391 c 2.20698,0 3.99609,1.791708 3.99609,3.993248 V 429.48648 c 0,2.20541 -1.79652,3.99325 -3.99609,3.99325 H 63.246085 c -2.206977,0 -3.996085,-1.79171 -3.996085,-3.99325 z"
             id="Rectangle-11"
             stroke="#d6d6d8"
             fill="#ffffff"
             filter="url(#filter-1)" /><rect
             id="Rectangle-11-Copy"
             fill="#4b4b4b"
             x="59"
             y="36"
             width="547.5"
             height="396.95947"
             rx="4" /><circle
             id="Oval-3"
             stroke="#e7e7e7"
             cx="636"
             cy="242"
             r="16" /><rect
             id="Rectangle-15"
             fill="#fafafa"
             filter="url(#filter-2)"
             x="630"
             y="236"
             width="12"
             height="12"
             rx="4" /><circle
             id="Oval-4"
             fill="#e7e7e7"
             cx="30"
             cy="227"
             r="5" /></g><g
           id="Rectangle-17-+-Path-70-+-Rectangle-17-Copy"
           transform="translate(662,225)"
           sketch:type="MSShapeGroup"><rect
             id="Rectangle-17"
             fill="#ffffff"
             filter="url(#filter-3)"
             x="4"
             y="0"
             width="41"
             height="33" /><path
             d="m 0,93.954247 c 0,0 22.908042,-23.97079 90.613941,53.385483 C 158.31984,224.69601 224.63565,70 224.63565,70"
             id="Path-70"
             stroke="#ffffff"
             stroke-width="6"
             filter="url(#filter-4)"
             transform="rotate(48,112.31782,119.50061)" /><rect
             id="Rectangle-17-Copy"
             fill="#ffffff"
             filter="url(#filter-5)"
             x="45"
             y="12"
             width="12"
             height="13" /></g></g></g><g
       style="fill:none"
       id="g14"
       transform="matrix(0.45134267,0,0,0.45134267,255.04383,213.21723)"><path
         d="m 539.729,38.4492 c 0,-16.06 12.087,-28.86045 29.099,-28.86045 10.255,0 19.32,5.32615 24.01,13.51765 l -6.441,3.7354 c -3.181,-6.1215 -9.938,-10.0983 -17.572,-10.0983 -13.039,0 -21.784,9.4627 -21.784,21.7057 0,12.2431 8.745,21.6276 21.784,21.6276 7.634,0 14.391,-3.9768 17.572,-10.0167 l 6.441,3.6572 c -4.612,8.1881 -13.674,13.5958 -24.01,13.5958 -17.015,0 -29.099,-12.8786 -29.099,-28.8605 z"
         fill="#ffffff"
         id="path1" /><path
         d="M 652.474,66.2801 H 645.16 V 22.7872 l -18.209,30.2914 h -0.955 L 607.788,22.8653 v 43.4114 h -7.392 V 10.6223 h 8.347 l 17.729,29.4179 17.651,-29.4179 h 8.348 v 55.6578 z"
         fill="#ffffff"
         id="path2" /><path
         d="m 659.631,53.6359 6.359,-3.6573 c 1.989,6.1215 6.757,10.0983 14.867,10.0983 8.11,0 11.767,-3.5791 11.767,-8.5858 0,-5.7238 -4.928,-7.634 -13.119,-10.1764 -8.906,-2.8619 -17.491,-5.6457 -17.491,-15.9819 0,-10.3362 8.188,-15.74393 17.491,-15.74393 9.302,0 15.743,5.16643 18.843,12.16483 l -6.203,3.5791 c -1.988,-4.7721 -5.883,-8.5857 -12.64,-8.5857 -5.962,0 -10.099,3.1814 -10.099,8.2696 0,5.0882 3.895,7.0766 11.689,9.5409 9.701,3.1814 18.844,6.0433 18.844,16.7772 0,9.7788 -7.872,15.9818 -19.241,15.9818 -10.575,0 -18.127,-5.3261 -21.071,-13.6739 z"
         fill="#ffffff"
         id="path3" /><path
         d="m 496.562,50.8897 c 1.35,5.0814 5.48,7.2363 10.581,7.2363 3.753,0 6.951,-2.1923 8.6,-4.4254 l 7.246,5.2208 c -3.528,5.2344 -8.793,8.2152 -15.995,8.2152 -12.607,0 -20.56,-8.8542 -20.56,-20.3291 0,-11.4748 8.028,-20.3291 19.809,-20.3291 11.104,0 18.983,9.0106 18.983,20.3291 0,1.4616 -0.15,2.7736 -0.374,4.0822 z m -0.149,-7.6987 h 19.133 c -1.2,-5.5437 -5.252,-7.7768 -9.303,-7.7768 -5.177,0 -8.705,2.8484 -9.83,7.7768 z"
         fill="#ffffff"
         id="path4" /><path
         d="m 276.596,50.8897 c 1.35,5.0814 5.479,7.2363 10.581,7.2363 3.753,0 6.951,-2.1923 8.599,-4.4254 l 7.247,5.2208 c -3.528,5.2344 -8.793,8.2152 -15.995,8.2152 -12.607,0 -20.561,-8.8542 -20.561,-20.3291 0,-11.4748 8.029,-20.3291 19.809,-20.3291 11.105,0 18.983,9.0106 18.983,20.3291 0,1.4616 -0.149,2.7736 -0.373,4.0822 z m -0.149,-7.6987 h 19.132 c -1.2,-5.5437 -5.251,-7.7768 -9.303,-7.7768 -5.176,0 -8.704,2.8484 -9.829,7.7768 z"
         fill="#ffffff"
         id="path5" /><path
         d="m 200.448,22.9404 c -3.311,0 -6.081,-2.7735 -6.081,-6.0841 0,-3.3106 2.77,-6.1589 6.081,-6.1589 3.31,0 6.159,2.8483 6.159,6.1589 0,3.3106 -2.77,6.0841 -6.159,6.0841 z"
         fill="#ffffff"
         id="path6" /><path
         d="m 205.45,27.559 h -9.928 v 38.4999 h 9.928 z"
         fill="#ffffff"
         id="path7" /><path
         d="m 222.947,8.13184 h -9.928 V 66.0568 h 9.928 z"
         fill="#ffffff"
         id="path8" /><path
         d="m 255.964,27.5573 h 10.932 l -14.11,38.4999 H 241.475 L 227.366,27.5573 h 10.931 l 8.796,26.9503 z"
         fill="#ffffff"
         id="path9" /><path
         d="m 320.112,34.1774 c 2.002,-5.2344 6.849,-7.3927 11.699,-7.3927 V 37.872 c -5.156,-0.6152 -11.699,1.6927 -11.699,9.7788 v 18.4019 h -9.928 V 27.5562 h 9.928 z"
         fill="#ffffff"
         id="path10" /><path
         d="m 345.671,38.4903 c 0,-2.0802 2.002,-3.1576 4.463,-3.1576 2.63,0 5.513,1.6519 6.845,3.8476 l 7.454,-5.0713 c -3.056,-4.9658 -8.28,-7.6306 -14.299,-7.6306 -7.927,0 -14.623,4.388 -14.623,12.243 0,13.5516 19.857,10.4722 19.857,16.0941 0,2.2331 -2.155,3.3105 -5.309,3.3105 -3.715,0 -6.856,-2.3113 -8.039,-5.3125 l -7.984,5.4315 c 2.818,5.751 8.447,8.8883 16.023,8.8883 8.235,0 15.468,-4.004 15.468,-12.3212 0,-14.1669 -19.856,-10.6252 -19.856,-16.3252 z"
         fill="#ffffff"
         id="path11" /><path
         d="m 392.243,37.1047 h -8.698 v 16.0158 c 0,4.1569 3.001,4.2351 8.698,3.9258 v 9.0072 C 378.311,67.5933 373.617,63.5111 373.617,53.1171 V 37.1013 h -6.696 v -9.5477 h 6.696 v -7.7768 l 9.928,-6.8591 v 14.6359 h 8.698 v 9.5477 z"
         fill="#ffffff"
         id="path12" /><path
         d="m 407.361,34.1774 c 2.002,-5.2344 6.849,-7.3927 11.699,-7.3927 V 37.872 c -5.156,-0.6152 -11.699,1.6927 -11.699,9.7788 v 18.4019 h -9.928 V 27.5562 h 9.928 z"
         fill="#ffffff"
         id="path13" /><path
         d="m 429.406,22.9404 c -3.311,0 -6.081,-2.7735 -6.081,-6.0841 0,-3.3106 2.77,-6.1589 6.081,-6.1589 3.311,0 6.159,2.8483 6.159,6.1589 0,3.3106 -2.77,6.0841 -6.159,6.0841 z"
         fill="#ffffff"
         id="path14" /><path
         d="m 434.411,27.559 h -9.929 v 38.4999 h 9.929 z"
         fill="#ffffff"
         id="path15" /><path
         d="m 463.852,26.4784 c 10.312,0 18.779,8.8543 18.779,20.3291 0,11.4749 -8.467,20.3291 -18.779,20.3291 -5.619,0 -9.697,-2.0801 -12.468,-5.6218 v 18.8777 h -9.928 V 27.5559 h 9.928 v 4.5444 c 2.771,-3.5417 6.849,-5.6219 12.468,-5.6219 z m -1.846,31.1854 c 6.159,0 10.7,-4.3881 10.7,-10.8563 0,-6.4682 -4.541,-10.8562 -10.7,-10.8562 -6.159,0 -10.622,4.388 -10.622,10.8562 0,6.4682 4.541,10.8563 10.622,10.8563 z"
         fill="#ffffff"
         id="path16" /><path
         d="m 172.383,34.0553 c -8.31,-2.5084 -10.425,-4.3132 -10.425,-7.685 0,-3.1372 2.665,-5.4893 7.213,-5.4893 5.224,0 9.446,2.9027 11.563,6.6959 l 8.331,-5.8258 c -3.81,-7.2193 -11.182,-11.3796 -19.897,-11.3796 -9.409,0 -18.032,5.9617 -18.032,16.3115 0,10.3498 8.154,13.9595 16.54,16.3898 8.154,2.352 11.838,3.9224 11.838,7.9977 0,3.059 -2.274,5.802 -8.779,5.802 -6.506,0 -10.979,-4.0481 -13.063,-8.8679 l -8.541,5.972 c 3.137,7.8006 10.401,13.4836 21.291,13.4836 11.679,0 19.911,-6.2744 19.911,-16.5461 0,-11.2131 -9.249,-14.1158 -17.95,-16.8622 z"
         fill="#ffffff"
         id="path17" /><path
         d="M 64.3868,7.93466 36.9879,27.1115 c -3.7898,2.6478 -4.711,7.8584 -2.0632,11.6516 2.6478,3.7899 7.8584,4.711 11.6516,2.0632 l 27.399,-19.1769 c 11.3423,-7.9433 27.0077,-5.1834 34.9247,6.1589 7.943,11.3423 5.183,27.0081 -6.159,34.9243 l -8.6133,6.0195 c 7.1343,12.1241 23.2723,7.0222 30.6043,-5.9924 7.664,-13.6026 7.386,-30.9644 -2.145,-44.567 C 109.369,-0.678279 83.2544,-5.27706 64.3868,7.93466 Z"
         fill="#ffffff"
         id="path18" /><path
         d="M 65.7495,68.218 93.1484,49.0411 c 3.7899,-2.6478 4.711,-7.8584 2.0632,-11.6516 C 92.5638,33.5997 87.3532,32.6785 83.56,35.3263 L 56.1611,54.5032 C 44.8188,62.4466 29.153,59.6866 21.2369,48.3443 13.2935,37.002 16.0535,21.3362 27.3958,13.4201 L 36.0087,7.40053 C 28.8777,-4.72013 12.7395,0.381695 5.40794,13.3963 -2.25669,26.9989 -1.97798,44.3607 7.55268,57.9634 20.7644,76.8309 46.8785,81.4603 65.7495,68.2214 Z"
         fill="#ffffff"
         id="path19" /></g></g></svg>
