<?xml version="1.0" encoding="UTF-8" standalone="no"?>
<svg width="286px" height="366px" viewBox="0 0 286 366" version="1.1" xmlns="http://www.w3.org/2000/svg" xmlns:xlink="http://www.w3.org/1999/xlink" xmlns:sketch="http://www.bohemiancoding.com/sketch/ns">
    <!-- Generator: Sketch Beta 3.3.2 (12041) - http://www.bohemiancoding.com/sketch -->
    <title>iPhone</title>
    <desc>Created with Sketch Beta.</desc>
    <defs>
        <filter x="-50%" y="-50%" width="200%" height="200%" filterUnits="objectBoundingBox" id="filter-1">
            <feOffset dx="0" dy="2" in="SourceAlpha" result="shadowOffsetOuter1"></feOffset>
            <feGaussianBlur stdDeviation="1" in="shadowOffsetOuter1" result="shadowBlurOuter1"></feGaussianBlur>
            <feColorMatrix values="0 0 0 0 0   0 0 0 0 0   0 0 0 0 0  0 0 0 0.35 0" in="shadowBlurOuter1" type="matrix" result="shadowMatrixOuter1"></feColorMatrix>
            <feMerge>
                <feMergeNode in="shadowMatrixOuter1"></feMergeNode>
                <feMergeNode in="SourceGraphic"></feMergeNode>
            </feMerge>
        </filter>
    </defs>
    <g id="skinny-interaction-flow" stroke="none" stroke-width="1" fill="none" fill-rule="evenodd" sketch:type="MSPage">
        <g id="iPhone" sketch:type="MSArtboardGroup">
            <g id="iPhone-Copy" sketch:type="MSLayerGroup" transform="translate(0.000000, 1.000000)">
                <rect id="Rectangle-31" fill="#FFFFFF" filter="url(#filter-1)" sketch:type="MSShapeGroup" x="0" y="0" width="286" height="586" rx="36"></rect>
                <rect id="Rectangle-32" fill="#4B4B4B" sketch:type="MSShapeGroup" x="15" y="63" width="257" height="454"></rect>
                <g id="logo-copy" transform="translate(71.375000, 159.950599)" sketch:type="MSShapeGroup">
                    <path d="M10.7185914,120.047091 C10.7185914,119.393765 10.4767608,118.863834 9.99874731,118.454225 C9.51559946,118.046152 8.91076613,117.671872 8.18424731,117.335993 C7.45618817,116.99909 6.66702957,116.649899 5.81779839,116.294563 C4.96702688,115.937692 4.17838172,115.497362 3.45340323,114.977159 C2.72534409,114.454396 2.11999731,113.80619 1.63890323,113.031518 C1.15626882,112.254797 0.917005376,111.263544 0.917005376,110.058271 C0.917005376,109.016329 1.09054839,108.11263 1.43866129,107.346149 C1.78728763,106.579669 2.28481183,105.941191 2.92969355,105.431741 C3.57560215,104.920754 4.33908871,104.541354 5.22015323,104.296101 C6.0981371,104.052383 7.08291667,103.928989 8.16833065,103.928989 C9.42009946,103.928989 10.5969059,104.037023 11.7023441,104.249508 C12.8082957,104.465064 13.7201667,104.777391 14.4384704,105.186999 L13.1173871,108.709634 C12.6655591,108.424444 11.9888441,108.163319 11.0898091,107.928818 C10.1861532,107.694317 9.2131828,107.576042 8.16833065,107.576042 C7.18560484,107.576042 6.43392742,107.769582 5.91073118,108.157174 C5.38856183,108.547327 5.12670699,109.066506 5.12670699,109.721368 C5.12670699,110.334245 5.36853763,110.84472 5.84911828,111.251256 C6.32969892,111.661377 6.93299194,112.040265 7.6625914,112.387408 C8.38808333,112.73404 9.17826882,113.090399 10.0285269,113.460583 C10.8782715,113.827183 11.6674301,114.271608 12.3949758,114.791299 C13.1204677,115.31355 13.726328,115.958684 14.207422,116.722092 C14.6885161,117.489084 14.9298333,118.442961 14.9298333,119.587817 C14.9298333,120.731137 14.7398602,121.71727 14.3604274,122.546216 C13.9809946,123.371065 13.4470161,124.063304 12.7631129,124.613204 C12.0751022,125.166175 11.2458952,125.574248 10.2724113,125.837934 C9.2999543,126.102131 8.23045699,126.238326 7.06237903,126.238326 C5.52616398,126.238326 4.17376075,126.093939 3.0056828,125.809261 C1.83760484,125.522023 0.978104839,125.235297 0.424615591,124.950107 L1.77753226,121.365007 C2.00190591,121.488913 2.29508065,121.621012 2.65243548,121.763863 C3.01338441,121.907226 3.41592204,122.038813 3.86775,122.161184 C4.31598387,122.284066 4.79502419,122.38698 5.29511559,122.467878 C5.79777419,122.550312 6.31634946,122.591273 6.84776075,122.591273 C8.09747581,122.591273 9.05504301,122.380836 9.71994892,121.962011 C10.3858817,121.54421 10.7185914,120.904197 10.7185914,120.047091" id="Fill-1" fill="#FFFFFF"></path>
                    <path d="M16.7561425,106.165964 C16.7561425,105.573056 16.9758952,105.067189 17.415914,104.649388 C17.8564462,104.231587 18.4674409,104.022687 19.2447903,104.022687 C20.0236801,104.022687 20.6546989,104.231587 21.1347661,104.649388 C21.6163737,105.067189 21.8582043,105.573056 21.8582043,106.165964 C21.8582043,106.760409 21.6163737,107.255523 21.1347661,107.652332 C20.6546989,108.050676 20.0236801,108.250872 19.2447903,108.250872 C18.4674409,108.250872 17.8564462,108.050676 17.415914,107.652332 C16.9758952,107.255523 16.7561425,106.760409 16.7561425,106.165964 L16.7561425,106.165964 Z M17.3399247,110.487336 L21.3360349,110.487336 L21.3360349,125.809261 L17.3399247,125.809261 L17.3399247,110.487336 Z" id="Fill-2" fill="#FFFFFF"></path>
                    <path d="M28.4641344,120.660992 C28.4641344,121.376271 28.5565538,121.89801 28.7393387,122.223137 C28.923664,122.550312 29.2214597,122.715179 29.6327258,122.715179 C29.8760968,122.715179 30.1169005,122.694187 30.3530833,122.652202 C30.5882392,122.612265 30.881414,122.520103 31.2295269,122.375204 L31.6592769,125.502054 C31.3306747,125.665386 30.8305833,125.830253 30.1528414,125.992049 C29.4781801,126.15538 28.7793871,126.238326 28.0631371,126.238326 C26.896086,126.238326 26.0052661,125.96696 25.3891371,125.425253 C24.7755753,124.884057 24.4680242,123.99111 24.4680242,122.744876 L24.4680242,104.358054 L28.4641344,104.358054 L28.4641344,120.660992" id="Fill-3" fill="#FFFFFF"></path>
                    <path d="M38.1917849,118.516178 L38.7139543,120.873988 L38.8674731,120.873988 L39.2997903,118.454225 L41.9101237,110.487336 L46.2142984,110.487336 L39.7911532,125.962352 L37.362578,125.962352 L30.6945215,110.487336 L35.3344866,110.487336 L38.1917849,118.516178" id="Fill-4" fill="#FFFFFF"></path>
                    <path d="M59.6536129,124.491345 C59.0390242,124.981339 58.2036559,125.39402 57.1500753,125.730923 C56.0929005,126.068338 54.9725726,126.238326 53.7854973,126.238326 C51.305578,126.238326 49.4926183,125.515879 48.345078,124.078152 C47.199078,122.636842 46.6235108,120.660992 46.6235108,118.148042 C46.6235108,115.452305 47.2699328,113.429862 48.5607231,112.080202 C49.851,110.732589 51.6644731,110.058271 53.9980618,110.058271 C54.7769516,110.058271 55.5368441,110.161185 56.2726048,110.364453 C57.0114462,110.568234 57.6660833,110.906161 58.2401102,111.375163 C58.8125968,111.845189 59.2736667,112.477522 59.6228065,113.275747 C59.9709194,114.072948 60.1460027,115.064201 60.1460027,116.249506 C60.1460027,116.677035 60.1203306,117.136821 60.0695,117.626815 C60.017129,118.11681 59.9395995,118.626773 59.8389651,119.159776 L50.6504274,119.159776 C50.7099866,120.446971 51.0432097,121.417232 51.6449624,122.069022 C52.2482554,122.723884 53.2227661,123.050034 54.5705484,123.050034 C55.4059167,123.050034 56.1565672,122.923056 56.8209597,122.66705 C57.4827849,122.412069 57.9900645,122.150943 58.3356102,121.887258 L59.6536129,124.491345 L59.6536129,124.491345 Z M53.9518522,113.244514 C52.911621,113.244514 52.143,113.555305 51.643422,114.179446 C51.1438441,114.803075 50.8450215,115.635605 50.7418199,116.677035 L56.4261237,116.677035 C56.5093011,115.572628 56.340379,114.726786 55.9234651,114.133365 C55.5050108,113.541481 54.847293,113.244514 53.9518522,113.244514 L53.9518522,113.244514 Z" id="Fill-5" fill="#FFFFFF"></path>
                    <path d="M71.2281102,114.226551 C70.5924704,114.001266 70.0199839,113.889136 69.5085968,113.889136 C68.7908065,113.889136 68.1911075,114.07858 67.7095,114.454396 C67.2284059,114.833284 66.9064785,115.320718 66.7421774,115.912091 L66.7421774,125.809261 L62.7465806,125.809261 L62.7465806,110.487336 L65.851871,110.487336 L66.3124274,112.509267 L66.4346263,112.509267 C66.784793,111.754051 67.2551048,111.171382 67.8486425,110.76331 C68.4421801,110.354213 69.1394328,110.150433 69.9378333,110.150433 C70.4702715,110.150433 71.0751048,110.262563 71.7513065,110.487336 L71.2281102,114.226551" id="Fill-6" fill="#FFFFFF"></path>
                    <path d="M84.0497554,120.353785 C84.0497554,119.496167 83.7930349,118.79676 83.2831882,118.256077 C82.7707742,117.713857 82.1284597,117.233079 81.3608656,116.81323 C80.5922446,116.397477 79.7584167,116.003229 78.8557876,115.635605 C77.9541855,115.267469 77.1203575,114.824068 76.3517366,114.301305 C75.5831156,113.781102 74.9428548,113.136992 74.4314677,112.371024 C73.9190538,111.60608 73.6633602,110.629675 73.6633602,109.445394 C73.6633602,107.769582 74.2456022,106.44245 75.4152204,105.462461 C76.5832984,104.479912 78.2427392,103.991454 80.3914892,103.991454 C81.6427446,103.991454 82.7789892,104.082592 83.8048441,104.26538 C84.8286452,104.449704 85.6244785,104.685741 86.1990188,104.971443 L85.4329651,107.208418 C84.9616263,106.982622 84.2674543,106.768089 83.358664,106.563285 C82.4462796,106.360528 81.4168306,106.25915 80.2692903,106.25915 C78.917914,106.25915 77.9028414,106.559189 77.2266398,107.162849 C76.5530054,107.764462 76.2131075,108.475133 76.2131075,109.291791 C76.2131075,110.088479 76.4708548,110.753582 76.9796747,111.283513 C77.4920887,111.816516 78.1344032,112.290638 78.9025108,112.708439 C79.6711317,113.12624 80.5049597,113.541481 81.4055349,113.950065 C82.3086774,114.35865 83.1435323,114.833284 83.909586,115.37448 C84.6797473,115.917723 85.3200081,116.565417 85.8329355,117.321145 C86.3432957,118.074825 86.601043,119.015901 86.601043,120.139765 C86.601043,121.058824 86.4352016,121.887258 86.1071129,122.620969 C85.7800511,123.357241 85.2984435,123.99111 84.6638306,124.521042 C84.0287043,125.053021 83.2600833,125.46007 82.3595081,125.747308 C81.4563656,126.03301 80.4335914,126.176373 79.287078,126.176373 C77.7518898,126.176373 76.4795833,126.057074 75.4768333,125.824109 C74.4715161,125.59012 73.2608226,125.328995 72.7073333,125.043293 L74.0012043,122.744876 C74.4715161,123.010098 75.1687688,123.269175 76.0898817,123.525181 C77.0125349,123.78221 78.045578,123.909189 79.1946586,123.909189 C79.8703468,123.909189 80.5049597,123.842115 81.1000376,123.707968 C81.6940887,123.574846 82.2070161,123.361337 82.6357392,123.064883 C83.0665161,122.769964 83.4094946,122.395173 83.6657016,121.947163 C83.9213952,121.49813 84.0497554,120.967174 84.0497554,120.353785" id="Fill-7" fill="#FFFFFF"></path>
                    <path d="M87.3860941,110.487336 L89.7812957,110.487336 L89.7812957,107.454184 L92.2386237,106.748633 L92.2386237,110.487336 L96.4205995,110.487336 L96.4205995,112.633173 L92.2386237,112.633173 L92.2386237,121.118217 C92.2386237,122.182176 92.3746855,122.93432 92.6406478,123.371065 C92.9066102,123.810883 93.3563844,124.031047 93.9920242,124.031047 C94.5260027,124.031047 94.9742366,123.976262 95.343914,123.864132 C95.7110242,123.752001 96.1228038,123.599934 96.572578,123.417146 L97.1260672,125.285986 C96.572578,125.553256 95.9682581,125.7683 95.313621,125.930096 C94.6574435,126.093939 93.9488952,126.176373 93.1931102,126.176373 C91.9433952,126.176373 91.0618172,125.824109 90.5494032,125.120094 C90.0359624,124.414031 89.7812957,123.233846 89.7812957,121.578003 L89.7812957,112.633173 L87.3860941,112.633173 L87.3860941,110.487336" id="Fill-8" fill="#FFFFFF"></path>
                    <path d="M107.009804,112.846682 C106.396242,112.64239 105.810919,112.540499 105.260511,112.540499 C104.378933,112.540499 103.681167,112.781145 103.169266,113.260387 C102.656339,113.740653 102.339546,114.346874 102.21786,115.083657 L102.21786,125.809261 L99.7589919,125.809261 L99.7589919,110.487336 L101.479532,110.487336 L101.939575,112.356688 L102.063315,112.356688 C102.451989,111.661377 102.916653,111.126325 103.461414,110.748461 C104.002581,110.369573 104.694699,110.181665 105.536742,110.181665 C106.129766,110.181665 106.796212,110.282532 107.532487,110.487336 L107.009804,112.846682" id="Fill-9" fill="#FFFFFF"></path>
                    <path d="M109.121073,105.829061 C109.121073,105.361083 109.279212,104.956083 109.597032,104.618155 C109.914852,104.281252 110.319444,104.113313 110.810806,104.113313 C111.302683,104.113313 111.722164,104.281252 112.07079,104.618155 C112.419417,104.956083 112.593987,105.361083 112.593987,105.829061 C112.593987,106.299087 112.419417,106.687191 112.07079,106.993886 C111.722164,107.301092 111.302683,107.454184 110.810806,107.454184 C110.319444,107.454184 109.914852,107.301092 109.597032,106.993886 C109.279212,106.687191 109.121073,106.299087 109.121073,105.829061 L109.121073,105.829061 Z M109.643755,110.487336 L112.101083,110.487336 L112.101083,125.809261 L109.643755,125.809261 L109.643755,110.487336 Z" id="Fill-10" fill="#FFFFFF"></path>
                    <path d="M115.418938,110.487336 L117.109699,110.487336 L117.572823,112.325455 L117.696048,112.325455 C118.165333,111.6112 118.775815,111.064884 119.521331,110.686508 C120.270441,110.30762 121.125833,110.119712 122.088535,110.119712 C124.13511,110.119712 125.662083,110.723373 126.666887,111.927622 C127.670664,113.132384 128.173323,115.10465 128.173323,117.84186 C128.173323,119.128031 128.00286,120.288248 127.664503,121.318926 C127.328199,122.350116 126.851212,123.224118 126.236624,123.940933 C125.624089,124.655188 124.880113,125.206112 124.010344,125.594216 C123.140062,125.983345 122.170685,126.176373 121.105296,126.176373 C120.34643,126.176373 119.747245,126.131316 119.308253,126.037106 C118.86618,125.945968 118.390734,125.788269 117.878833,125.56196 L117.878833,131.936495 L115.418938,131.936495 L115.418938,110.487336 L115.418938,110.487336 Z M121.627978,112.264526 C120.582613,112.264526 119.75854,112.534867 119.15268,113.077087 C118.548874,113.618282 118.123231,114.440572 117.878833,115.541907 L117.878833,123.142196 C118.24697,123.427898 118.666965,123.648063 119.139331,123.802178 C119.610156,123.956294 120.235527,124.031047 121.013903,124.031047 C122.426379,124.031047 123.549788,123.505212 124.377454,122.450982 C125.208202,121.400847 125.624089,119.854063 125.624089,117.811139 C125.624089,116.974002 125.550153,116.212641 125.407417,115.528083 C125.264167,114.844036 125.033118,114.262392 124.716325,113.781102 C124.398505,113.301348 123.986726,112.928604 123.488688,112.664406 C122.984489,112.396624 122.36682,112.264526 121.627978,112.264526 L121.627978,112.264526 Z" id="Fill-11" fill="#FFFFFF"></path>
                    <path d="M142.226712,124.581971 C141.61161,125.072989 140.837341,125.46007 139.906987,125.747308 C138.973038,126.03301 137.986204,126.176373 136.940325,126.176373 C135.773788,126.176373 134.757688,125.986929 133.897161,125.610089 C133.037661,125.231201 132.33014,124.690005 131.776651,123.984966 C131.226242,123.279927 130.815489,122.438181 130.547473,121.458193 C130.282538,120.47718 130.151097,119.372772 130.151097,118.148042 C130.151097,115.532691 130.731798,113.541481 131.902444,112.171852 C133.067441,110.805295 134.737151,110.119712 136.907978,110.119712 C137.607798,110.119712 138.302484,110.196514 138.999223,110.349605 C139.695449,110.502696 140.320306,110.794542 140.873796,111.222584 C141.427285,111.650625 141.876032,112.26043 142.226712,113.046366 C142.575852,113.832303 142.747341,114.868613 142.747341,116.155808 C142.747341,116.830126 142.686242,117.57715 142.564556,118.393808 L132.700331,118.393808 C132.700331,119.291875 132.79121,120.088052 132.976562,120.78285 C133.161914,121.477137 133.447387,122.063902 133.835548,122.546216 C134.22525,123.023922 134.733556,123.392058 135.357387,123.648063 C135.982245,123.904069 136.744704,124.031047 137.64682,124.031047 C138.342019,124.031047 139.039785,123.909189 139.736524,123.662911 C140.433777,123.417146 140.95646,123.131956 141.303546,122.805293 L142.226712,124.581971 L142.226712,124.581971 Z M136.940325,112.264526 C135.731685,112.264526 134.763849,112.58146 134.037331,113.214306 C133.310298,113.848175 132.872847,114.930054 132.730624,116.461991 L140.35214,116.461991 C140.35214,114.910598 140.055884,113.821551 139.459266,113.198433 C138.864702,112.57634 138.025739,112.264526 136.940325,112.264526 L136.940325,112.264526 Z" id="Fill-12" fill="#FFFFFF"></path>
                    <path d="M63.3067446,59.39326 C70.262328,54.6448713 72.0398602,45.1736943 67.27975,38.2390192 L54.6809382,46.8300495 L54.6799113,46.8300495 C51.2069973,49.2027078 46.4576694,48.3189771 44.0737634,44.8480554 C41.6929382,41.3796938 42.5837581,36.6456414 46.0607796,34.270935 C46.0633468,34.269399 46.0684812,34.2658149 46.0720753,34.2637669 L57.5587742,26.4233446 L64.9487285,21.3759415 C71.9043118,16.6265287 73.682871,7.15637582 68.9227608,0.221188692 L37.4621855,21.6974843 C37.453457,21.7051645 37.4447285,21.7082365 37.4370269,21.7133566 C27.0075027,28.8338917 24.3401774,43.0437291 31.4841935,53.4447178 C38.6246156,63.8498025 52.8736263,66.5076509 63.3010968,59.3881399 L63.3067446,59.39326" id="Fill-13" fill="#43C7F4"></path>
                    <path d="M79.8677796,29.6336527 L79.8677796,29.6362127 L79.8569973,29.6428689 C79.8302984,29.6623253 79.8046263,29.6858778 79.777414,29.7058462 L79.8703468,29.6397968 C72.9152769,34.3886975 71.1372312,43.8598745 75.8988817,50.7940376 L88.4920457,42.1983992 L88.4869113,42.1927671 C91.9654731,39.8175487 96.7163414,40.7007674 99.0925457,44.170153 C101.478505,47.6380026 100.587685,52.3735911 97.1091237,54.7493215 L78.2232285,67.643291 C71.2655914,72.3937278 69.4865188,81.8649047 74.2491962,88.7990678 L86.844414,80.2049655 L105.729796,67.3063879 L105.729796,67.3048518 C116.162401,60.1838048 118.831266,45.9790874 111.689817,35.5755387 C104.545801,25.16943 90.2962769,22.5136296 79.8677796,29.6336527" id="Fill-14" fill="#43C7F4"></path>
                </g>
                <g id="Oval-47-+-Oval-47-Copy-+-Rectangle-33" transform="translate(139.000000, 26.000000)" fill="#E7E7E7" sketch:type="MSShapeGroup">
                    <circle id="Oval-47" cx="3" cy="3" r="3"></circle>
                </g>
            </g>
        </g>
    </g>
</svg>