<?xml version="1.0" encoding="UTF-8" standalone="no"?>
<!-- Generator: Adobe Illustrator 18.1.1, SVG Export Plug-In . SVG Version: 6.00 Build 0)  -->

<svg
   version="1.1"
   id="Layer_1"
   x="0px"
   y="0px"
   viewBox="-25.9 201.1 205.9 263.4"
   enable-background="new -25.9 201.1 205.9 263.4"
   xml:space="preserve"
   sodipodi:docname="iphone-small.svg"
   inkscape:version="1.3 (0e150ed6c4, 2023-07-21)"
   xmlns:inkscape="http://www.inkscape.org/namespaces/inkscape"
   xmlns:sodipodi="http://sodipodi.sourceforge.net/DTD/sodipodi-0.dtd"
   xmlns="http://www.w3.org/2000/svg"
   xmlns:svg="http://www.w3.org/2000/svg"
   xmlns:sketch="http://www.bohemiancoding.com/sketch/ns"><defs
   id="defs2" /><sodipodi:namedview
   id="namedview2"
   pagecolor="#ffffff"
   bordercolor="#000000"
   borderopacity="0.25"
   inkscape:showpageshadow="2"
   inkscape:pageopacity="0.0"
   inkscape:pagecheckerboard="0"
   inkscape:deskcolor="#d1d1d1"
   inkscape:zoom="2.3291572"
   inkscape:cx="262.11197"
   inkscape:cy="137.60342"
   inkscape:window-width="3364"
   inkscape:window-height="1403"
   inkscape:window-x="1996"
   inkscape:window-y="0"
   inkscape:window-maximized="1"
   inkscape:current-layer="Layer_1" />&#10;<filter
   height="1.0165773"
   width="1.023976"
   x="-0.011988012"
   y="-0.0058508045"
   id="filter-1"
   filterUnits="objectBoundingBox">&#10;	<feOffset
   dx="0"
   dy="2"
   in="SourceAlpha"
   result="shadowOffsetOuter1"
   id="feOffset1" />&#10;	<feGaussianBlur
   in="shadowOffsetOuter1"
   result="shadowBlurOuter1"
   stdDeviation="1"
   id="feGaussianBlur1" />&#10;	&#10;		<feColorMatrix
   type="matrix"
   in="shadowBlurOuter1"
   values="0 0 0 0 0   0 0 0 0 0   0 0 0 0 0  0 0 0 0.35 0"
   result="shadowMatrixOuter1"
   id="feColorMatrix1">&#10;		</feColorMatrix>&#10;	<feMerge
   id="feMerge2">&#10;		<feMergeNode
   in="shadowMatrixOuter1"
   id="feMergeNode1" />&#10;		<feMergeNode
   in="SourceGraphic"
   id="feMergeNode2" />&#10;	</feMerge>&#10;</filter>&#10;<title
   id="title2">iPhone</title>&#10;<desc
   id="desc2">Created with Sketch Beta.</desc>&#10;<g
   id="skinny-interaction-flow"
   sketch:type="MSPage">&#10;	<g
   id="iPhone"
   sketch:type="MSArtboardGroup">&#10;		<g
   id="iPhone-Copy"
   transform="translate(0.000000, 1.000000)"
   sketch:type="MSLayerGroup">&#10;			<g
   id="Rectangle-31"
   sketch:type="MSShapeGroup"
   filter="url(#filter-1)">&#10;				<path
   fill="#FFFFFF"
   d="M2.1,203.2h149.8c13.9,0,25.2,11.3,25.2,25.2v359.8c0,13.9-11.3,25.2-25.2,25.2H2.1      c-13.9,0-25.2-11.3-25.2-25.2V228.4C-23.1,214.5-11.8,203.2,2.1,203.2z"
   id="path2" />&#10;			</g>&#10;			<rect
   id="Rectangle-32"
   x="-12.6"
   y="247.3"
   sketch:type="MSShapeGroup"
   fill="#4B4B4B"
   width="179.9"
   height="317.8">&#10;			</rect>&#10;			&#10;			&#10;				<g
   id="Oval-47-_x2B_-Oval-47-Copy-_x2B_-Rectangle-33"
   transform="translate(139.000000, 26.000000)"
   sketch:type="MSShapeGroup">&#10;				<circle
   id="Oval-47"
   fill="#E7E7E7"
   cx="-62.7"
   cy="197.5"
   r="2.1" />&#10;			</g>&#10;		</g>&#10;	</g>&#10;</g>&#10;<g
   style="fill:#43c7f4;fill-opacity:1"
   id="g2"
   transform="matrix(0.2680127,0,0,0.2680127,8.4386202,320.0068)"><path
     d="M 253.313,29.6704 145.519,105.117 c -14.91,10.417 -18.534,30.917 -8.117,45.84 10.417,14.91 30.917,18.534 45.84,8.117 L 291.037,83.6276 c 44.623,-31.251 106.256,-20.3927 137.4,24.2304 31.251,44.624 20.393,106.256 -24.231,137.401 l -33.885,23.682 c 28.068,47.699 91.56,27.627 120.404,-23.575 C 520.879,191.85 519.783,123.544 482.287,70.028 430.282,-4.21493 327.543,-22.3076 253.313,29.6704 Z"
     fill="#005ae1"
     id="path1"
     style="fill:#43c7f4;fill-opacity:1" /><path
     d="m 258.674,266.84 107.794,-75.447 c 14.911,-10.417 18.534,-30.917 8.117,-45.84 -10.417,-14.91 -30.916,-18.534 -45.84,-8.117 L 220.951,212.882 C 176.328,244.133 114.695,233.275 83.5509,188.652 52.2999,144.028 63.1582,82.3955 107.781,51.2514 L 141.667,27.5691 C 113.612,-20.1165 50.1202,-0.04472 21.2761,51.1578 -8.87836,104.674 -7.78184,172.979 29.7141,226.495 c 51.978,74.23 154.7169,92.443 228.9599,40.358 z"
     fill="#005ae1"
     id="path2-5"
     style="fill:#43c7f4;fill-opacity:1" /></g></svg>
