<?xml version="1.0" encoding="UTF-8" standalone="no"?>
<svg
   width="286px"
   height="366px"
   viewBox="0 0 286 366"
   version="1.1"
   id="svg2"
   sodipodi:docname="iphone.svg"
   xml:space="preserve"
   inkscape:version="1.3 (0e150ed6c4, 2023-07-21)"
   xmlns:inkscape="http://www.inkscape.org/namespaces/inkscape"
   xmlns:sodipodi="http://sodipodi.sourceforge.net/DTD/sodipodi-0.dtd"
   xmlns="http://www.w3.org/2000/svg"
   xmlns:svg="http://www.w3.org/2000/svg"
   xmlns:sketch="http://www.bohemiancoding.com/sketch/ns"><sodipodi:namedview
     id="namedview2"
     pagecolor="#ffffff"
     bordercolor="#000000"
     borderopacity="0.25"
     inkscape:showpageshadow="2"
     inkscape:pageopacity="0.0"
     inkscape:pagecheckerboard="0"
     inkscape:deskcolor="#d1d1d1"
     inkscape:zoom="1.1640214"
     inkscape:cx="-24.484086"
     inkscape:cy="158.50224"
     inkscape:window-width="3364"
     inkscape:window-height="1403"
     inkscape:window-x="1996"
     inkscape:window-y="0"
     inkscape:window-maximized="1"
     inkscape:current-layer="svg2" /><!-- Generator: Sketch Beta 3.3.2 (12041) - http://www.bohemiancoding.com/sketch --><title
     id="title1">iPhone</title><desc
     id="desc1">Created with Sketch Beta.</desc><defs
     id="defs2"><filter
       x="-0.0083916084"
       y="-0.0040955631"
       width="1.0167832"
       height="1.0116041"
       filterUnits="objectBoundingBox"
       id="filter-1"><feOffset
         dx="0"
         dy="2"
         in="SourceAlpha"
         result="shadowOffsetOuter1"
         id="feOffset1" /><feGaussianBlur
         stdDeviation="1"
         in="shadowOffsetOuter1"
         result="shadowBlurOuter1"
         id="feGaussianBlur1" /><feColorMatrix
         values="0 0 0 0 0   0 0 0 0 0   0 0 0 0 0  0 0 0 0.35 0"
         in="shadowBlurOuter1"
         type="matrix"
         result="shadowMatrixOuter1"
         id="feColorMatrix1" /><feMerge
         id="feMerge2"><feMergeNode
           in="shadowMatrixOuter1"
           id="feMergeNode1" /><feMergeNode
           in="SourceGraphic"
           id="feMergeNode2" /></feMerge></filter></defs><g
     id="skinny-interaction-flow"
     stroke="none"
     stroke-width="1"
     fill="none"
     fill-rule="evenodd"
     sketch:type="MSPage"><g
       id="iPhone"
       sketch:type="MSArtboardGroup"><g
         id="iPhone-Copy"
         sketch:type="MSLayerGroup"
         transform="translate(0.000000, 1.000000)"><rect
           id="Rectangle-31"
           fill="#FFFFFF"
           filter="url(#filter-1)"
           sketch:type="MSShapeGroup"
           x="0"
           y="0"
           width="286"
           height="586"
           rx="36" /><rect
           id="Rectangle-32"
           fill="#4B4B4B"
           sketch:type="MSShapeGroup"
           x="15"
           y="63"
           width="257"
           height="454" /><g
           id="Oval-47-+-Oval-47-Copy-+-Rectangle-33"
           transform="translate(139.000000, 26.000000)"
           fill="#E7E7E7"
           sketch:type="MSShapeGroup"><circle
             id="Oval-47"
             cx="3"
             cy="3"
             r="3" /></g></g></g></g><g
     style="fill:#43c7f4;fill-opacity:1"
     id="g2"
     transform="matrix(0.34013537,0,0,0.34013537,55.925186,169.87519)"><path
       d="M 253.313,29.6704 145.519,105.117 c -14.91,10.417 -18.534,30.917 -8.117,45.84 10.417,14.91 30.917,18.534 45.84,8.117 L 291.037,83.6276 c 44.623,-31.251 106.256,-20.3927 137.4,24.2304 31.251,44.624 20.393,106.256 -24.231,137.401 l -33.885,23.682 c 28.068,47.699 91.56,27.627 120.404,-23.575 C 520.879,191.85 519.783,123.544 482.287,70.028 430.282,-4.21493 327.543,-22.3076 253.313,29.6704 Z"
       fill="#005ae1"
       id="path1"
       style="fill:#43c7f4;fill-opacity:1" /><path
       d="m 258.674,266.84 107.794,-75.447 c 14.911,-10.417 18.534,-30.917 8.117,-45.84 -10.417,-14.91 -30.916,-18.534 -45.84,-8.117 L 220.951,212.882 C 176.328,244.133 114.695,233.275 83.5509,188.652 52.2999,144.028 63.1582,82.3955 107.781,51.2514 L 141.667,27.5691 C 113.612,-20.1165 50.1202,-0.04472 21.2761,51.1578 -8.87836,104.674 -7.78184,172.979 29.7141,226.495 c 51.978,74.23 154.7169,92.443 228.9599,40.358 z"
       fill="#005ae1"
       id="path2"
       style="fill:#43c7f4;fill-opacity:1" /></g></svg>
