<?xml version="1.0" encoding="utf-8"?>
<!-- Generator: Adobe Illustrator 18.1.1, SVG Export Plug-In . SVG Version: 6.00 Build 0)  -->
<svg version="1.1" id="Layer_1" xmlns:sketch="http://www.bohemiancoding.com/sketch/ns"
	 xmlns="http://www.w3.org/2000/svg" xmlns:xlink="http://www.w3.org/1999/xlink" x="0px" y="0px"
	 viewBox="-25.9 201.1 205.9 263.4" enable-background="new -25.9 201.1 205.9 263.4" xml:space="preserve">
<filter  height="200%" width="200%" x="-50%" y="-50%" id="filter-1" filterUnits="objectBoundingBox">
	<feOffset  dx="0" dy="2" in="SourceAlpha" result="shadowOffsetOuter1"></feOffset>
	<feGaussianBlur  in="shadowOffsetOuter1" result="shadowBlurOuter1" stdDeviation="1"></feGaussianBlur>
	
		<feColorMatrix  type="matrix" in="shadowBlurOuter1" values="0 0 0 0 0   0 0 0 0 0   0 0 0 0 0  0 0 0 0.35 0" result="shadowMatrixOuter1">
		</feColorMatrix>
	<feMerge>
		<feMergeNode  in="shadowMatrixOuter1"></feMergeNode>
		<feMergeNode  in="SourceGraphic"></feMergeNode>
	</feMerge>
</filter>
<title>iPhone</title>
<desc>Created with Sketch Beta.</desc>
<g id="skinny-interaction-flow" sketch:type="MSPage">
	<g id="iPhone" sketch:type="MSArtboardGroup">
		<g id="iPhone-Copy" transform="translate(0.000000, 1.000000)" sketch:type="MSLayerGroup">
			<g id="Rectangle-31" sketch:type="MSShapeGroup" filter="url(#filter-1)">
				<path fill="#FFFFFF" d="M2.1,203.2h149.8c13.9,0,25.2,11.3,25.2,25.2v359.8c0,13.9-11.3,25.2-25.2,25.2H2.1
					c-13.9,0-25.2-11.3-25.2-25.2V228.4C-23.1,214.5-11.8,203.2,2.1,203.2z"/>
			</g>
			<rect id="Rectangle-32" x="-12.6" y="247.3" sketch:type="MSShapeGroup" fill="#4B4B4B" width="179.9" height="317.8">
			</rect>
			<g id="logo-copy" transform="translate(71.375000, 159.950599)" sketch:type="MSShapeGroup">
				<path id="Fill-1" fill="#FFFFFF" d="M-37,239.2c0-0.5-0.2-0.8-0.5-1.1c-0.3-0.3-0.8-0.5-1.3-0.8c-0.5-0.2-1.1-0.5-1.7-0.7
					c-0.6-0.2-1.1-0.6-1.7-0.9c-0.5-0.4-0.9-0.8-1.3-1.4c-0.3-0.5-0.5-1.2-0.5-2.1c0-0.7,0.1-1.4,0.4-1.9c0.2-0.5,0.6-1,1-1.3
					c0.5-0.4,1-0.6,1.6-0.8c0.6-0.2,1.3-0.3,2.1-0.3c0.9,0,1.7,0.1,2.5,0.2c0.8,0.2,1.4,0.4,1.9,0.7l-0.9,2.5
					c-0.3-0.2-0.8-0.4-1.4-0.5c-0.6-0.2-1.3-0.2-2-0.2c-0.7,0-1.2,0.1-1.6,0.4c-0.4,0.3-0.5,0.6-0.5,1.1c0,0.4,0.2,0.8,0.5,1.1
					c0.3,0.3,0.8,0.6,1.3,0.8c0.5,0.2,1.1,0.5,1.7,0.8c0.6,0.3,1.1,0.6,1.7,0.9c0.5,0.4,0.9,0.8,1.3,1.4c0.3,0.5,0.5,1.2,0.5,2
					c0,0.8-0.1,1.5-0.4,2.1c-0.3,0.6-0.6,1.1-1.1,1.4c-0.5,0.4-1.1,0.7-1.7,0.9c-0.7,0.2-1.4,0.3-2.2,0.3c-1.1,0-2-0.1-2.8-0.3
					c-0.8-0.2-1.4-0.4-1.8-0.6l0.9-2.5c0.2,0.1,0.4,0.2,0.6,0.3c0.3,0.1,0.5,0.2,0.9,0.3c0.3,0.1,0.6,0.2,1,0.2
					c0.4,0.1,0.7,0.1,1.1,0.1c0.9,0,1.5-0.1,2-0.4C-37.2,240.3-37,239.8-37,239.2"/>
				<path id="Fill-2" fill="#FFFFFF" d="M-32.8,229.5c0-0.4,0.2-0.8,0.5-1.1c0.3-0.3,0.7-0.4,1.3-0.4c0.5,0,1,0.1,1.3,0.4
					c0.3,0.3,0.5,0.6,0.5,1.1c0,0.4-0.2,0.8-0.5,1c-0.3,0.3-0.8,0.4-1.3,0.4c-0.5,0-1-0.1-1.3-0.4
					C-32.6,230.3-32.8,229.9-32.8,229.5L-32.8,229.5z M-32.4,232.5h2.8v10.7h-2.8V232.5z"/>
				<path id="Fill-3" fill="#FFFFFF" d="M-24.6,239.7c0,0.5,0.1,0.9,0.2,1.1c0.1,0.2,0.3,0.3,0.6,0.3c0.2,0,0.3,0,0.5,0
					c0.2,0,0.4-0.1,0.6-0.2l0.3,2.2c-0.2,0.1-0.6,0.2-1.1,0.3c-0.5,0.1-1,0.2-1.5,0.2c-0.8,0-1.4-0.2-1.9-0.6
					c-0.4-0.4-0.6-1-0.6-1.9v-12.9h2.8V239.7"/>
				<path id="Fill-4" fill="#FFFFFF" d="M-17.8,238.2l0.4,1.7h0.1l0.3-1.7l1.8-5.6h3l-4.5,10.8h-1.7l-4.7-10.8h3.2L-17.8,238.2"/>
				<path id="Fill-5" fill="#FFFFFF" d="M-2.8,242.3c-0.4,0.3-1,0.6-1.8,0.9c-0.7,0.2-1.5,0.4-2.4,0.4c-1.7,0-3-0.5-3.8-1.5
					c-0.8-1-1.2-2.4-1.2-4.2c0-1.9,0.5-3.3,1.4-4.2c0.9-0.9,2.2-1.4,3.8-1.4c0.5,0,1.1,0.1,1.6,0.2c0.5,0.1,1,0.4,1.4,0.7
					c0.4,0.3,0.7,0.8,1,1.3c0.2,0.6,0.4,1.3,0.4,2.1c0,0.3,0,0.6-0.1,1c0,0.3-0.1,0.7-0.2,1.1h-6.4c0,0.9,0.3,1.6,0.7,2
					c0.4,0.5,1.1,0.7,2,0.7c0.6,0,1.1-0.1,1.6-0.3c0.5-0.2,0.8-0.4,1.1-0.5L-2.8,242.3L-2.8,242.3z M-6.7,234.5
					c-0.7,0-1.3,0.2-1.6,0.7c-0.3,0.4-0.6,1-0.6,1.7h4c0.1-0.8-0.1-1.4-0.4-1.8C-5.7,234.7-6.1,234.5-6.7,234.5L-6.7,234.5z"/>
				<path id="Fill-6" fill="#FFFFFF" d="M5.3,235.2c-0.4-0.2-0.8-0.2-1.2-0.2c-0.5,0-0.9,0.1-1.3,0.4c-0.3,0.3-0.6,0.6-0.7,1v6.9
					h-2.8v-10.7h2.2l0.3,1.4H2c0.2-0.5,0.6-0.9,1-1.2c0.4-0.3,0.9-0.4,1.5-0.4c0.4,0,0.8,0.1,1.3,0.2L5.3,235.2"/>
				<path id="Fill-7" fill="#FFFFFF" d="M14.3,239.4c0-0.6-0.2-1.1-0.5-1.5c-0.4-0.4-0.8-0.7-1.3-1c-0.5-0.3-1.1-0.6-1.8-0.8
					c-0.6-0.3-1.2-0.6-1.8-0.9c-0.5-0.4-1-0.8-1.3-1.4c-0.4-0.5-0.5-1.2-0.5-2c0-1.2,0.4-2.1,1.2-2.8c0.8-0.7,2-1,3.5-1
					c0.9,0,1.7,0.1,2.4,0.2c0.7,0.1,1.3,0.3,1.7,0.5l-0.5,1.6c-0.3-0.2-0.8-0.3-1.5-0.5c-0.6-0.1-1.4-0.2-2.2-0.2
					c-0.9,0-1.7,0.2-2.1,0.6c-0.5,0.4-0.7,0.9-0.7,1.5c0,0.6,0.2,1,0.5,1.4c0.4,0.4,0.8,0.7,1.3,1c0.5,0.3,1.1,0.6,1.8,0.9
					c0.6,0.3,1.2,0.6,1.8,1c0.5,0.4,1,0.8,1.3,1.4c0.4,0.5,0.5,1.2,0.5,2c0,0.6-0.1,1.2-0.3,1.7c-0.2,0.5-0.6,1-1,1.3
					c-0.4,0.4-1,0.7-1.6,0.9c-0.6,0.2-1.3,0.3-2.2,0.3c-1.1,0-2-0.1-2.7-0.2c-0.7-0.2-1.6-0.3-1.9-0.5l0.9-1.6
					c0.3,0.2,0.8,0.4,1.5,0.5c0.6,0.2,1.4,0.3,2.2,0.3c0.5,0,0.9,0,1.3-0.1c0.4-0.1,0.8-0.2,1.1-0.5c0.3-0.2,0.5-0.5,0.7-0.8
					C14.2,240.2,14.3,239.9,14.3,239.4"/>
				<path id="Fill-8" fill="#FFFFFF" d="M16.7,232.5h1.7v-2.1l1.7-0.5v2.6H23v1.5h-2.9v5.9c0,0.7,0.1,1.3,0.3,1.6
					c0.2,0.3,0.5,0.5,0.9,0.5c0.4,0,0.7,0,0.9-0.1c0.3-0.1,0.5-0.2,0.9-0.3l0.4,1.3c-0.4,0.2-0.8,0.3-1.3,0.5
					c-0.5,0.1-1,0.2-1.5,0.2c-0.9,0-1.5-0.2-1.9-0.7c-0.4-0.5-0.5-1.3-0.5-2.5V234h-1.7V232.5"/>
				<path id="Fill-9" fill="#FFFFFF" d="M30.4,234.2c-0.4-0.1-0.8-0.2-1.2-0.2c-0.6,0-1.1,0.2-1.5,0.5c-0.4,0.3-0.6,0.8-0.7,1.3v7.5
					h-1.7v-10.7h1.2l0.3,1.3h0.1c0.3-0.5,0.6-0.9,1-1.1c0.4-0.3,0.9-0.4,1.5-0.4c0.4,0,0.9,0.1,1.4,0.2L30.4,234.2"/>
				<path id="Fill-10" fill="#FFFFFF" d="M31.9,229.3c0-0.3,0.1-0.6,0.3-0.8c0.2-0.2,0.5-0.4,0.8-0.4c0.3,0,0.6,0.1,0.9,0.4
					c0.2,0.2,0.4,0.5,0.4,0.8c0,0.3-0.1,0.6-0.4,0.8c-0.2,0.2-0.5,0.3-0.9,0.3c-0.3,0-0.6-0.1-0.8-0.3
					C32,229.9,31.9,229.6,31.9,229.3L31.9,229.3z M32.2,232.5H34v10.7h-1.7V232.5z"/>
				<path id="Fill-11" fill="#FFFFFF" d="M36.3,232.5h1.2l0.3,1.3h0.1c0.3-0.5,0.8-0.9,1.3-1.1c0.5-0.3,1.1-0.4,1.8-0.4
					c1.4,0,2.5,0.4,3.2,1.3c0.7,0.8,1.1,2.2,1.1,4.1c0,0.9-0.1,1.7-0.4,2.4c-0.2,0.7-0.6,1.3-1,1.8c-0.4,0.5-0.9,0.9-1.6,1.2
					c-0.6,0.3-1.3,0.4-2,0.4c-0.5,0-1,0-1.3-0.1c-0.3-0.1-0.6-0.2-1-0.3v4.5h-1.7V232.5L36.3,232.5z M40.6,233.8
					c-0.7,0-1.3,0.2-1.7,0.6c-0.4,0.4-0.7,1-0.9,1.7v5.3c0.3,0.2,0.6,0.4,0.9,0.5c0.3,0.1,0.8,0.2,1.3,0.2c1,0,1.8-0.4,2.4-1.1
					c0.6-0.7,0.9-1.8,0.9-3.2c0-0.6-0.1-1.1-0.2-1.6c-0.1-0.5-0.3-0.9-0.5-1.2c-0.2-0.3-0.5-0.6-0.9-0.8
					C41.6,233.9,41.1,233.8,40.6,233.8L40.6,233.8z"/>
				<path id="Fill-12" fill="#FFFFFF" d="M55,242.4c-0.4,0.3-1,0.6-1.6,0.8c-0.7,0.2-1.3,0.3-2.1,0.3c-0.8,0-1.5-0.1-2.1-0.4
					c-0.6-0.3-1.1-0.6-1.5-1.1c-0.4-0.5-0.7-1.1-0.9-1.8c-0.2-0.7-0.3-1.5-0.3-2.3c0-1.8,0.4-3.2,1.2-4.2c0.8-1,2-1.4,3.5-1.4
					c0.5,0,1,0.1,1.5,0.2c0.5,0.1,0.9,0.3,1.3,0.6c0.4,0.3,0.7,0.7,0.9,1.3c0.2,0.6,0.4,1.3,0.4,2.2c0,0.5,0,1-0.1,1.6h-6.9
					c0,0.6,0.1,1.2,0.2,1.7c0.1,0.5,0.3,0.9,0.6,1.2c0.3,0.3,0.6,0.6,1.1,0.8c0.4,0.2,1,0.3,1.6,0.3c0.5,0,1-0.1,1.5-0.3
					c0.5-0.2,0.9-0.4,1.1-0.6L55,242.4L55,242.4z M51.3,233.8c-0.8,0-1.5,0.2-2,0.7c-0.5,0.4-0.8,1.2-0.9,2.3h5.3
					c0-1.1-0.2-1.8-0.6-2.3C52.7,234,52.1,233.8,51.3,233.8L51.3,233.8z"/>
				<path id="Fill-13" fill="#43C7F4" d="M-0.2,196.8c4.9-3.3,6.1-10,2.8-14.8l-8.8,6h0c-2.4,1.7-5.8,1-7.4-1.4
					c-1.7-2.4-1-5.7,1.4-7.4c0,0,0,0,0,0l8-5.5l5.2-3.5c4.9-3.3,6.1-10,2.8-14.8l-22,15c0,0,0,0,0,0c-7.3,5-9.2,14.9-4.2,22.2
					C-17.5,199.9-7.5,201.8-0.2,196.8L-0.2,196.8"/>
				<path id="Fill-14" fill="#43C7F4" d="M11.4,175.9L11.4,175.9L11.4,175.9C11.4,176,11.4,176,11.4,175.9L11.4,175.9
					c-4.9,3.3-6.1,10-2.8,14.8l8.8-6l0,0c2.4-1.7,5.8-1,7.4,1.4c1.7,2.4,1,5.7-1.4,7.4l-13.2,9c-4.9,3.3-6.1,10-2.8,14.8l8.8-6
					l13.2-9v0c7.3-5,9.2-14.9,4.2-22.2C28.7,172.8,18.7,171,11.4,175.9"/>
			</g>
			
				<g id="Oval-47-_x2B_-Oval-47-Copy-_x2B_-Rectangle-33" transform="translate(139.000000, 26.000000)" sketch:type="MSShapeGroup">
				<circle id="Oval-47" fill="#E7E7E7" cx="-62.7" cy="197.5" r="2.1"/>
			</g>
		</g>
	</g>
</g>
</svg>
